<?xml version="1.0" encoding="utf-8"?>
<!-- Generator: Adobe Illustrator 16.0.0, SVG Export Plug-In . SVG Version: 6.00 Build 0)  -->
<!DOCTYPE svg PUBLIC "-//W3C//DTD SVG 1.1//EN" "http://www.w3.org/Graphics/SVG/1.1/DTD/svg11.dtd">
<svg version="1.1" xmlns="http://www.w3.org/2000/svg" xmlns:xlink="http://www.w3.org/1999/xlink" x="0px" y="0px"
	 width="557.153px" height="68.666px" viewBox="0 0 557.153 68.666" enable-background="new 0 0 557.153 68.666"
	 xml:space="preserve">
<g id="圖層_1">
</g>
<g id="圖層_2">
	<polygon fill="#010A3F" points="203.078,68.666 134.412,68.666 169.079,0 237.745,0 	"/>
	<polygon fill="#000033" points="248.165,24.811 231.695,57.434 245.2,57.434 261.67,24.811 277.889,24.811 284.657,11.404 
		238.627,11.404 231.858,24.811 	"/>
	<polygon fill="#000033" points="320.46,11.404 312.225,27.716 292.912,27.716 301.147,11.404 287.741,11.404 264.5,57.434 
		277.908,57.434 286.143,41.123 305.457,41.123 297.221,57.434 310.628,57.434 333.868,11.404 	"/>
	<polygon fill="#000033" points="334.018,44.026 335.483,41.122 368.075,41.122 374.843,27.716 342.397,27.716 343.864,24.811 
		376.309,24.811 383.078,11.404 337.048,11.404 313.809,57.434 359.839,57.434 366.608,44.026 	"/>
	<polygon fill="#000033" points="389.986,44.027 389.931,44.027 391.397,41.122 423.989,41.122 430.757,27.716 398.311,27.716 
		399.776,24.811 432.223,24.811 438.993,11.404 392.961,11.404 369.723,57.434 383.216,57.434 	"/>
	<polygon fill="#000033" points="488.353,44.026 489.818,41.122 522.409,41.122 529.178,27.715 496.732,27.715 498.198,24.811 
		530.644,24.811 537.413,11.404 491.383,11.404 468.144,57.434 514.174,57.434 520.942,44.026 	"/>
	<polygon fill="#000033" points="439.12,44.028 440.585,41.123 473.199,41.123 488.203,11.405 442.172,11.405 435.404,24.812 
		467.973,24.812 466.506,27.716 433.938,27.716 418.934,57.434 464.964,57.434 471.733,44.028 	"/>
	<polygon fill="#010A3F" points="151.744,68.666 83.078,68.666 117.745,0 186.411,0 	"/>
	<polygon fill="#010A3F" points="100.078,68.666 31.412,68.666 66.079,0 134.745,0 	"/>
	<polygon fill="#010A3F" points="69.632,68.666 0.966,68.666 35.633,0 104.299,0 	"/>
	<g>
		<polygon fill="#FFFFFF" points="125.057,11.404 108.647,43.905 105.726,43.905 122.134,11.404 108.825,11.404 92.417,43.905 
			89.496,43.905 105.904,11.404 92.536,11.404 69.384,57.262 115.242,57.262 138.393,11.404 		"/>
		<polygon fill="#FFFFFF" points="183.073,24.763 189.817,11.405 143.959,11.405 137.215,24.761 156.64,24.761 127.554,43.897 
			120.806,57.262 166.665,57.262 173.409,43.906 153.977,43.906 		"/>
		<polygon fill="#FFFFFF" points="204.832,41.022 208.209,34.333 185.281,34.333 177.801,49.147 194.012,49.147 194.018,49.136 
			194.025,49.136 193.29,50.594 177.071,50.594 173.705,57.261 196.633,57.261 204.102,42.47 187.848,42.47 188.579,41.022 		"/>
		<polygon fill="#FFFFFF" points="72.376,24.761 80.395,24.761 87.138,11.404 41.28,11.404 34.537,24.761 56.773,24.761 
			47.198,43.905 39.489,43.905 41.79,39.307 44.938,33.478 30.135,33.478 18.127,57.262 56.121,57.262 62.802,43.905 62.8,43.905 		
			"/>
	</g>
	<polygon fill="#000033" points="521.309,63.494 203.078,63.494 203.078,68.666 518.632,68.666 	"/>
	<polygon fill="#000033" points="552.472,0 234.572,0 234.572,5.172 549.798,5.172 	"/>
	<polygon fill="#010A3F" points="551.403,0.086 516.736,68.752 522.486,68.752 557.153,0.086 	"/>
</g>
<g id="圖層_3">
</g>
</svg>
